<?xml version="1.0" standalone="no"?><!DOCTYPE svg PUBLIC "-//W3C//DTD SVG 1.1//EN" "http://www.w3.org/Graphics/SVG/1.1/DTD/svg11.dtd"><svg class="icon" height="512" viewBox="0 0 1024 1024" version="1.1" xmlns="http://www.w3.org/2000/svg"><path d="M730.532667 735.168756c0 23.211654-0.623193 45.282323-8.15268 60.20315-7.532557 14.930037-21.896706 21.884426-45.203528 21.884426L361.189737 817.256332c-27.916816 0-45.537126-5.345752-55.450916-16.822131-8.599865-9.955746-12.269441-25.177426-12.269441-50.897204L293.46938 312.581158l-51.275827 0 0 494.405273c0 15.996322 5.071506 31.100322 14.280238 42.529629 9.882068 12.263301 23.727401 19.017122 38.984896 19.017122l433.092859 0c15.258519 0 29.101805-6.753821 38.980803-19.017122 9.206686-11.429307 14.277168-26.533306 14.277168-42.529629L781.809517 312.581158l-51.27685 0L730.532667 735.168756zM399.634328 127.83755l224.74567 0 0 51.275827-224.74567 0 0-51.275827ZM572.5434 372.007619l51.272757 0 0 367.254362-51.272757 0 0-367.254362ZM400.186913 372.007619l51.275827 0 0 367.254362-51.275827 0 0-367.254362ZM184.743096 214.014258l650.505517 0 0 52.235688-650.505517 0 0-52.235688Z" /></svg>